<svg xmlns="http://www.w3.org/2000/svg" version="1.2" viewBox="5.19 3.62 90.01 13.91">
  <title>blommor-svg</title>
  <style>.s0 { fill: none } .s1 { fill: white }</style>
  <g id="Layer">
    <g id="Layer">
      <path id="Layer" fill-rule="evenodd" class="s0"
            d="m37.2 10.9c-0.1 0.1-0.4 0.6-0.4 1.3 0.1 0.4 0.2 0.8 0.6 1.2 0.4 0.3 0.8 0.6 1.3 0.9q0.6 0.3 1.2 0.7 0 0-0.1-0.1-0.1-0.1-0.2-0.4c-0.1-0.1-0.1-0.3-0.2-0.4q-0.1-0.2-0.2-0.5-0.1-0.2-0.1-0.4-0.1-0.3-0.1-0.5c-0.1-0.3-0.1-0.5 0-0.5 0 0 0.1 0.2 0.2 0.4q0.1 0.3 0.2 0.5 0.1 0.2 0.1 0.4c0.1 0.2 0.2 0.3 0.3 0.4q0.1 0.2 0.1 0.5c0.1 0.1 0.1 0.3 0.2 0.4q0 0.1 0 0.2 0.1-0.1 0.1-0.2 0.1-0.3 0.2-0.6c0.2-0.5 0.4-1 0.4-1.4 0-0.4-0.2-0.8-0.3-1-0.2-0.2-0.3-0.2-0.3-0.3q0 0 0 0-1.5-0.3-3-0.6z"></path>
      <path id="Layer" fill-rule="evenodd" class="s0"
            d="m46.3 11.2q0.5-0.1 1-0.3 0 0 0 0c0.1-0.1 0.3-0.4 0.2-0.7-0.1-0.3-0.3-0.6-0.7-0.9-0.2-0.2-0.5-0.5-0.6-1q0 0.1 0 0.2-0.1 0.2-0.2 0.3c0 0.1-0.1 0.2-0.1 0.4q-0.1 0.2-0.1 0.3-0.1 0.2-0.1 0.4c0 0.1-0.1 0.3-0.1 0.4-0.1 0.2-0.1 0.4-0.2 0.4 0 0-0.1-0.2-0.1-0.4q0-0.2 0-0.4 0.1-0.2 0.1-0.4c0.1-0.2 0.1-0.3 0.1-0.4q0.1-0.2 0.2-0.4 0.1-0.2 0.2-0.3-0.2 0.1-0.3 0.2-0.5 0.3-0.8 0.7c-0.2 0.4-0.4 0.7-0.5 1-0.1 0.5-0.1 0.8-0.2 1q0.4 0 0.8 0 0.7 0 1.4-0.1z"></path>
      <path id="Layer" fill-rule="evenodd" class="s0"
            d="m52.2 13.7c-0.5 0.4-1 0.8-1.5 1.4q-0.3 0.4-0.5 0.8l-0.1 0.1-0.1 0.1c0 0 0.1 0 0.1 0q0 0 0 0 0.1-0.1 0.3-0.3 0.2-0.2 0.4-0.3c0.1-0.1 0.3-0.2 0.4-0.3q0.2-0.2 0.4-0.4c0.2-0.1 0.3-0.2 0.4-0.3 0.2-0.2 0.3-0.3 0.5-0.4 0.2-0.2 0.4-0.3 0.5-0.3 0 0.1-0.1 0.3-0.4 0.5q-0.1 0.2-0.3 0.4-0.2 0.2-0.4 0.4c-0.2 0.1-0.3 0.2-0.4 0.3q-0.3 0.2-0.5 0.4 0 0-0.1 0.1 0.5-0.2 1-0.3 1-0.3 2-0.6c0.7-0.2 1.3-0.4 1.7-0.9 0.4-0.4 0.4-0.9 0.4-1.3q0-0.2-0.1-0.3-1.1 0.2-2.2 0.2c-0.2 0.2-0.8 0.5-1.5 1z"></path>
      <path id="Layer" fill-rule="evenodd" class="s0"
            d="m49.8 11.3c-0.1-0.4-0.1-0.7 0-1q0.1-0.3 0.3-0.5-0.3 0.3-1 0.7-0.6 0.3-1.3 0.6-0.7 0.3-1.4 0.4c-0.5 0.1-1 0.2-1.5 0.2q-0.7 0-1.4 0-0.1 0-0.3 0 0.3 0.1 0.5 0.1c2.2 0.3 4.4 0.6 6.6 0.7q0.2 0 0.5 0c-0.5-0.3-0.9-0.7-1-1.2z"></path>
      <path id="Layer" fill-rule="evenodd" class="s0"
            d="m50.3 10q-0.1 0.2-0.2 0.4c-0.1 0.2-0.1 0.5 0 0.8 0.1 0.6 0.7 1.1 1.4 1.1 0.3 0 0.7-0.1 1-0.4q0.2-0.2 0.3-0.4 0-0.1 0.1-0.2v-0.1q0 0 0-0.1c0.1-0.2 0.1-0.5 0.1-0.7q0.2 0.2 0.3 0.5 0.1 0.1 0.2 0.2l0.1 0.1q0.2 0.3 0.5 0.4c0.4 0.2 0.8 0.3 1.3 0.2 0.3 0 0.6-0.2 0.8-0.4 0.2-0.3 0.4-0.6 0.4-1q0-0.2-0.1-0.4-0.1-0.2-0.4-0.3c-0.3-0.1-0.6-0.1-1-0.2l-0.6-0.1 0.5-0.3c0.3-0.1 0.5-0.2 0.8-0.2 0.4-0.1 0.8-0.2 1.2-0.3 0.4-0.2 0.8-0.4 0.9-0.8 0.2-0.3 0.1-0.7-0.1-1-0.2-0.2-0.6-0.4-1-0.4-0.4 0-0.8 0.1-1.2 0.3q-0.1 0.1-0.2 0.2l-0.2 0.1-0.2 0.2q-0.5 0.3-1 0.7c0.2-0.4 0.5-0.9 0.6-1.2 0.1-0.2 0.1-0.3 0.2-0.4q0-0.1 0-0.3c0.1-0.4 0-0.8-0.2-1.1-0.2-0.2-0.6-0.3-0.9-0.3-0.3 0.1-0.6 0.3-0.8 0.5-0.5 0.4-0.9 0.8-1.1 1.2-0.2 0.4-0.2 0.7-0.2 0.9 0.1 0.3 0.2 0.3 0.2 0.4q0 0 0 0 0 0 0 0 0 0-0.4-0.2c-0.2 0-0.5-0.2-0.9-0.2q-0.4-0.1-0.8 0-0.3 0-0.7 0.4c-0.2 0.2-0.3 0.4-0.3 0.8 0.1 0.3 0.3 0.6 0.6 0.7q0.2 0.2 0.5 0.2c0.1 0.1 0.2 0.1 0.4 0.1q0.3 0 0.6 0.1c-0.2 0.1-0.4 0.4-0.5 0.5zm0.4-1.5c-0.1 0-0.2 0-0.3 0q-0.1 0-0.3 0-0.1 0-0.3 0c0 0-0.2 0-0.3 0-0.1 0-0.3 0-0.3-0.1q0 0 0.3-0.1 0.1-0.1 0.3-0.1 0.2 0 0.3 0c0.1 0 0.2-0.1 0.4-0.1q0.1 0 0.3 0.1c0.1 0 0.2 0.1 0.3 0.1q0.1 0 0.2 0.1c0.1-0.2 0.3-0.3 0.4-0.4 0.4-0.2 0.7-0.2 1-0.1q0.1 0 0.1 0-0.1-0.1-0.1-0.3 0-0.1 0-0.3c0-0.1 0.1-0.2 0.1-0.3q0.1-0.1 0.2-0.2 0-0.2 0.1-0.3 0.1-0.1 0.2-0.2 0.3-0.1 0.3-0.1c0.1 0.1 0 0.1-0.1 0.3q0 0.1-0.1 0.2-0.1 0.1-0.1 0.2c-0.1 0.1-0.1 0.2-0.1 0.3q-0.1 0.1-0.1 0.2c0 0.1-0.1 0.2-0.1 0.2q-0.1 0.2-0.1 0.3c0.5 0 0.8 0.2 0.8 0.2 0 0.1-0.4 0-0.9 0-0.3 0.1-0.6 0.1-0.9 0.3-0.2 0.1-0.4 0.3-0.3 0.5 0.2 0.2 0.4 0.4 0.7 0.5 0.3 0.1 0.6 0.2 0.9 0.1 0.3 0 0.5-0.2 0.6-0.5 0.1-0.2 0.1-0.5 0-0.6 0-0.2-0.1-0.2-0.1-0.3 0 0 0.2 0.1 0.3 0.2q0 0.1 0 0.1 0.1 0 0.2-0.1 0.1-0.1 0.3-0.1c0.1-0.1 0.2-0.1 0.4-0.1q0.1-0.1 0.3-0.1 0.2-0.1 0.3-0.1 0.2 0 0.4 0 0.3-0.1 0.3 0c0.1 0.1-0.1 0.1-0.3 0.2q-0.1 0.1-0.3 0.1-0.1 0.1-0.3 0.1c-0.1 0.1-0.2 0.1-0.3 0.2q-0.2 0-0.4 0.1c-0.1 0-0.2 0-0.3 0q-0.2 0-0.3 0 0.1 0.2 0 0.5c0 0.2-0.2 0.4-0.3 0.5q0.1 0.1 0.2 0.1 0.1 0.1 0.2 0.2c0.1 0 0.1 0.1 0.2 0.2q0.1 0 0.2 0.1 0.1 0.1 0.3 0.1 0.1 0.1 0.2 0.2c0.1 0 0.2 0.1 0.2 0.2q0 0-0.3 0-0.1 0-0.3-0.1-0.1 0-0.2-0.1c-0.1 0-0.2-0.1-0.3-0.1q-0.1-0.1-0.3-0.2c0-0.1-0.1-0.2-0.1-0.3q-0.1-0.1-0.1-0.2-0.2 0.1-0.4 0.2c-0.3 0-0.7 0-1-0.2q0 0-0.1 0 0 0.1-0.1 0.2-0.1 0.1-0.2 0.2c0 0-0.1 0.1-0.2 0.1q-0.1 0.1-0.1 0.3-0.1 0.1-0.2 0.2 0 0.1-0.1 0.2c-0.1 0.2-0.2 0.3-0.2 0.3q-0.1 0-0.1-0.3 0.1-0.2 0.1-0.3 0.1-0.2 0.2-0.3c0-0.1 0.1-0.2 0.1-0.3q0.1-0.1 0.3-0.2c0.1-0.1 0.2-0.1 0.3-0.2q0 0 0 0c-0.2-0.1-0.4-0.2-0.6-0.5q-0.1-0.3-0.1-0.6 0 0.1-0.2 0.1-0.1 0-0.3-0.1z"></path>
      <path id="Layer" fill-rule="evenodd" class="s0"
            d="m34.7 7.6c0 0 0.1-0.1 0.2-0.2q0.1-0.2-0.1-0.4-0.1-0.2-0.3-0.2c-0.2-0.1-0.3 0-0.4 0.1-0.2 0-0.2 0.1-0.3 0.2 0 0.1 0.1 0.2 0.2 0.3q0.2 0.1 0.3 0.1 0-0.1 0-0.2c0-0.2 0-0.3 0.1-0.3 0 0 0 0.1 0.1 0.3q0.1 0.1 0.1 0.2 0 0 0.1 0.1z"></path>
      <path id="Layer" fill-rule="evenodd" class="s0"
            d="m40.9 9.1c0 0.1-0.3 0-0.7 0q-0.1-0.1-0.2-0.1c0.1 0 0.2 0.2 0.5 0.4q0.2 0.1 0.5 0.1c0.2 0 0.4-0.1 0.5-0.2 0.2-0.1 0.2-0.3 0.1-0.4 0-0.2-0.2-0.3-0.3-0.4-0.2 0-0.4 0-0.6 0-0.2 0.1-0.4 0.2-0.5 0.3q0.1 0 0.1 0c0.4 0.1 0.6 0.2 0.6 0.3z"></path>
      <path id="Layer" fill-rule="evenodd" class="s0"
            d="m16.2 9.9l0.4 0.3-0.5 0.1c-0.3 0.1-0.6 0-0.8 0-0.5-0.1-0.9-0.2-1.3-0.2-0.4 0.1-0.8 0.1-1.1 0.4-0.3 0.2-0.3 0.6-0.2 1 0.1 0.3 0.4 0.6 0.7 0.7 0.4 0.2 0.8 0.2 1.3 0.1q0.1 0 0.3 0l0.1-0.1h0.3q0.6-0.2 1.2-0.4c-0.4 0.3-0.7 0.7-1 0.9-0.2 0.2-0.2 0.2-0.3 0.3q-0.1 0.1-0.1 0.3c-0.3 0.3-0.3 0.7-0.2 1.1 0.1 0.3 0.4 0.5 0.7 0.6 0.4 0 0.7-0.1 1-0.2 0.6-0.2 1.1-0.4 1.4-0.7 0.3-0.3 0.4-0.6 0.5-0.8 0-0.3-0.1-0.4-0.1-0.4q0 0 0 0 0 0 0 0 0.1 0 0.3 0.2c0.2 0.2 0.5 0.4 0.9 0.7q0.2 0.1 0.6 0.2 0.4 0.1 0.8-0.1c0.3-0.1 0.5-0.3 0.6-0.6 0.1-0.4-0.1-0.7-0.3-1q-0.2-0.2-0.4-0.4c-0.1 0-0.2-0.1-0.3-0.1q-0.3-0.2-0.6-0.3c0.3-0.1 0.6-0.2 0.7-0.3q0.2-0.2 0.3-0.3c0.2-0.2 0.3-0.5 0.3-0.8 0.1-0.6-0.3-1.3-0.9-1.5-0.3-0.1-0.7-0.1-1.1 0q-0.2 0.1-0.4 0.3-0.1 0.1-0.1 0.1l-0.1 0.1q0 0-0.1 0.1c-0.1 0.2-0.2 0.5-0.3 0.7q0-0.3-0.1-0.6-0.1-0.2-0.1-0.3l-0.1-0.2q-0.1-0.3-0.3-0.5c-0.3-0.3-0.6-0.6-1.1-0.7-0.3 0-0.7 0-1 0.2-0.3 0.1-0.5 0.4-0.6 0.7q-0.1 0.3-0.1 0.5 0.1 0.2 0.2 0.4c0.3 0.2 0.6 0.3 1 0.5zm0.2-1.1q0.1-0.1 0.3 0.1 0.1 0 0.3 0.1 0.1 0.1 0.2 0.3c0 0 0.1 0.1 0.2 0.2q0.1 0.1 0.2 0.2c0 0.1 0 0.2 0 0.3q0.1 0.2 0.1 0.3 0.1-0.1 0.3 0c0.4 0 0.7 0.2 0.9 0.4q0.1 0.1 0.1 0.1 0-0.1 0.1-0.1 0.2-0.1 0.3-0.1c0.1-0.1 0.2-0.1 0.2-0.1q0.2-0.1 0.3-0.2 0.1-0.1 0.2-0.2 0.1-0.1 0.2-0.1c0.1-0.2 0.2-0.2 0.3-0.2q0.1 0-0.1 0.3-0.1 0.1-0.2 0.3-0.1 0.1-0.2 0.2c-0.1 0-0.2 0.1-0.3 0.2q-0.1 0.1-0.3 0.1c-0.1 0.1-0.2 0-0.3 0.1q0 0-0.1 0c0.2 0.1 0.4 0.3 0.4 0.7q0.1 0.2-0.1 0.5 0.1 0 0.2 0 0.2 0.1 0.3 0.2c0.1 0 0.1 0.1 0.2 0.1q0.2 0.1 0.3 0.1 0.2 0.1 0.3 0.1c0.1 0 0.2 0.1 0.3 0.1 0.2 0.1 0.3 0.1 0.3 0.2q-0.1 0.1-0.4 0.1-0.1 0-0.3-0.1-0.1 0-0.3-0.1c-0.1 0-0.2 0-0.3 0q-0.2-0.1-0.3-0.2c-0.1 0-0.2-0.2-0.2-0.2q-0.2-0.1-0.2-0.2c-0.2 0.2-0.4 0.2-0.5 0.2-0.4 0-0.8-0.1-1.1-0.2q0 0 0 0 0.1 0.1 0 0.3 0 0.1-0.1 0.2c-0.1 0.1-0.2 0.2-0.2 0.2q-0.1 0.1-0.2 0.2-0.1 0.1-0.3 0.2-0.1 0.1-0.2 0.1-0.3 0.1-0.4 0c0 0 0.1-0.1 0.2-0.2q0.1-0.1 0.2-0.2 0.1 0 0.2-0.1c0.1-0.1 0.1-0.2 0.2-0.2q0.1-0.1 0.2-0.2c0-0.1 0.1-0.1 0.2-0.2q0.1-0.1 0.1-0.2c-0.5-0.2-0.7-0.5-0.6-0.5 0-0.1 0.3 0.2 0.8 0.3 0.3 0.1 0.6 0.2 0.9 0.1 0.3 0 0.5-0.1 0.5-0.4-0.1-0.2-0.3-0.5-0.5-0.7-0.2-0.2-0.5-0.4-0.7-0.4-0.4-0.1-0.6 0-0.8 0.2-0.2 0.2-0.3 0.5-0.3 0.6 0 0.2 0.1 0.3 0 0.3 0 0-0.1-0.1-0.1-0.3q0 0 0-0.1-0.1 0-0.2 0.1-0.2 0-0.4 0c-0.1 0-0.2-0.1-0.3-0.1q-0.2 0-0.4 0-0.2 0-0.3 0-0.2-0.1-0.4-0.1-0.3-0.1-0.3-0.2c0 0 0.1 0 0.3-0.1q0.2 0 0.4 0 0.2 0 0.3 0.1c0.2 0 0.3-0.1 0.4-0.1q0.2 0.1 0.3 0.1c0.2 0 0.3 0.1 0.4 0.1q0.1 0 0.2 0 0-0.2 0.2-0.4c0.1-0.2 0.3-0.3 0.5-0.4q-0.1 0-0.1-0.2-0.1-0.1-0.2-0.2c0-0.1-0.1-0.1-0.1-0.2q-0.1-0.1-0.2-0.2-0.1-0.1-0.2-0.2 0-0.1-0.1-0.2c-0.1-0.1-0.2-0.2-0.2-0.3z"></path>
      <path id="Layer" fill-rule="evenodd" class="s0"
            d="m39.4 6.3c0 0-0.2 0.2-0.6 0.5q0.1 0 0.3 0 0.3 0 0.6-0.2c0.1-0.1 0.3-0.2 0.3-0.4 0-0.1-0.2-0.2-0.3-0.3-0.2 0-0.4 0-0.6 0-0.2 0.1-0.4 0.2-0.5 0.3-0.1 0.1-0.1 0.3-0.1 0.4q0.1 0.1 0.1 0.1c0.5-0.3 0.8-0.5 0.8-0.4z"></path>
      <path id="Layer" fill-rule="evenodd" class="s0"
            d="m21.6 6.9c0.2-0.1 0.5-0.3 0.7-0.6 0.2-0.3 0.4-0.8 0.3-1.3q-0.1-0.3-0.2-0.6-0.1-0.1-0.2-0.2c-0.1-0.1-0.1-0.1-0.1-0.1q0 0 0 0.1 0 0.1 0 0.3 0 0.1-0.1 0.3c-0.1 0.1-0.1 0.2-0.2 0.3q-0.1 0.1-0.1 0.3-0.1 0.1-0.2 0.2-0.1 0.2-0.3 0.3-0.2 0.2-0.3 0.2c0-0.1 0-0.2 0.1-0.4q0.1-0.1 0.2-0.2 0.1-0.2 0.2-0.3c0-0.1 0-0.2 0.1-0.3q0-0.1 0.1-0.2-0.3 0.2-0.6 0.4-0.7 0.3-1.4 0.5c-0.5 0.2-0.9 0.3-1.3 0.5-0.4 0.2-0.7 0.4-0.9 0.6q0.3 0 0.5 0 1.7 0.1 3.4 0.3 0.1 0 0.3-0.1z"></path>
      <path id="Layer" fill-rule="evenodd" class="s0"
            d="m59.9 15.5q0-0.1 0.1-0.4 0 0 0 0-0.2 0-0.3 0-0.1 0.1-0.2 0.2c0 0.1 0 0.1 0 0.2q0.1 0.2 0.2 0.2 0.1 0 0.2-0.1 0.2-0.1 0.2-0.2 0 0 0 0-0.1 0.1-0.2 0.1z"></path>
      <path id="Layer" fill-rule="evenodd" class="s0"
            d="m85.7 5.4c-0.2 0.3-0.2 0.6-0.3 1.1q0.2-0.1 0.3-0.2c0.1-0.1 0.2-0.1 0.3-0.2q0.2-0.1 0.3-0.2 0.2-0.1 0.3-0.3c0.1 0 0.2-0.1 0.3-0.2 0.2-0.1 0.4-0.2 0.4-0.2 0.1 0.1 0 0.2-0.2 0.4q-0.1 0.1-0.3 0.3-0.1 0.1-0.3 0.2c-0.1 0.1-0.2 0.3-0.3 0.3q-0.1 0.2-0.3 0.2 0 0.1 0 0.1 0.5-0.1 1-0.2 0.6-0.1 1.1-0.4 0.6-0.3 1-0.6c0.3-0.3 0.5-0.5 0.5-0.7q0 0-0.1-0.1-1.4 0.1-3.2 0.3c-0.2 0.1-0.4 0.2-0.5 0.4z"></path>
      <path id="Layer" fill-rule="evenodd" class="s0"
            d="m81 5.6q-0.1 0-0.2 0c-0.1 0-0.2 0-0.3 0q-0.1-0.1-0.2-0.1c-0.1 0-0.2-0.1-0.2-0.2q-0.3-0.1-0.3-0.1 0.1-0.1 0.3-0.1 0.1 0 0.3 0c0.1 0 0.1 0.1 0.2 0.1q0.1 0 0.2 0.1 0.2 0 0.3 0 0.1 0.1 0.2 0.2 0.1 0 0.1 0 0.4 0 0.8-0.1 0.7-0.1 1.3-0.3c-0.1 0.1-0.5-0.1-1-0.1q-0.4-0.1-1-0.1-0.5 0-1.1-0.1c-0.4-0.1-0.7-0.1-1.1-0.3-0.1-0.1-0.2-0.2-0.2-0.2q0 0 0 0.1 0 0.1 0 0.2c0 0.4 0.1 0.7 0.4 0.9 0.4 0.3 0.9 0.2 0.9 0.3q0 0 0 0 0.3-0.1 0.6-0.2z"></path>
      <path id="Layer" fill-rule="evenodd" class="s0"
            d="m62.1 16.3q-0.1 0.1-0.1 0.2 0 0.1 0.2 0.3c0 0.1 0.1 0.1 0.3 0.2q0.2 0.1 0.3 0 0.1 0 0.1-0.2c0-0.1-0.1-0.2-0.2-0.3-0.2-0.2-0.3-0.2-0.4-0.2 0.1 0.2 0.2 0.4 0.1 0.4 0 0-0.1-0.1-0.3-0.4q0 0 0 0z"></path>
      <path id="Layer" fill-rule="evenodd" class="s0"
            d="m77.9 8.9q0.1 0 0.2 0 0.1 0 0.3 0c0.1 0 0.2 0 0.3 0q0.2 0 0.4 0.1 0.1 0 0.3 0c0.1 0 0.2 0 0.3 0 0.2 0 0.4 0 0.4 0.1 0 0.1-0.1 0.1-0.3 0.1q-0.2 0.1-0.4 0.1-0.2 0-0.3 0c-0.2 0-0.3 0-0.4 0q-0.2 0-0.4 0c-0.1 0-0.2-0.1-0.3-0.2q-0.2 0-0.2 0-0.2 0.1-0.3 0.2c0.3 0.1 0.7 0.3 1.3 0.4 0.4 0 1 0 1.5-0.1 0.5 0 1-0.2 1.5-0.5 0.2-0.1 0.4-0.3 0.4-0.5q0-0.1 0-0.3 0.1-0.1 0.1-0.3 0 0 0 0 0 0 0 0 0 0 0 0h-0.1-0.2q-0.4 0-0.8 0c-0.6 0-1.1 0-1.6 0.1-0.6 0.1-1 0.3-1.3 0.4q0 0 0 0-0.2 0.2-0.4 0.4z"></path>
      <path id="Layer" fill-rule="evenodd" class="s0"
            d="m67.5 9.5c0.1-0.1 0.3-0.3 0.4-0.6 0.1-0.3 0-0.7-0.1-1.1q-0.1-0.2-0.3-0.4 0-0.1-0.1-0.2 0 0.1 0 0.2 0.1 0.2 0 0.4c0 0.2-0.1 0.3-0.1 0.5q-0.1 0.2-0.2 0.4 0 0.2-0.2 0.4-0.1 0.2-0.3 0.3c-0.1 0.2-0.3 0.3-0.3 0.2-0.1 0 0-0.1 0.1-0.4q0.1-0.1 0.2-0.3 0.1-0.2 0.2-0.4c0.1-0.1 0.1-0.2 0.1-0.3q0.1-0.2 0.1-0.4c0.1-0.2 0.1-0.3 0.2-0.4q0-0.1 0-0.2-0.2 0.3-0.3 0.5c-0.3 0.3-0.6 0.5-0.9 0.8-0.3 0.2-0.6 0.5-0.8 0.8-0.1 0.3-0.1 0.5-0.1 0.7q0 0.2 0 0.2 1.2-0.3 2.3-0.6 0-0.1 0.1-0.1z"></path>
      <path id="Layer" fill-rule="evenodd" class="s0"
            d="m75.1 12q0-0.1 0.1-0.2 0.1-0.1 0.1-0.3c0.1-0.2 0.1-0.5 0.1-0.8-0.2-0.6-0.8-1.1-1.4-1.1-0.4 0-0.8 0.1-1 0.4q-0.2 0.2-0.4 0.4 0 0.1 0 0.2l-0.1 0.1q0 0 0 0.1c0 0.2 0 0.5 0 0.7q-0.2-0.2-0.4-0.5-0.1-0.1-0.2-0.2l-0.1-0.2q-0.2-0.2-0.5-0.3c-0.3-0.2-0.8-0.3-1.2-0.3-0.3 0.1-0.7 0.3-0.9 0.5-0.2 0.3-0.3 0.6-0.3 1q0 0.2 0.1 0.4 0.1 0.2 0.3 0.3c0.3 0.1 0.7 0.1 1.1 0.2l0.5 0.1-0.5 0.3c-0.2 0.1-0.5 0.2-0.7 0.2-0.5 0.1-0.9 0.2-1.3 0.3-0.4 0.2-0.7 0.4-0.9 0.8-0.2 0.3-0.1 0.7 0.1 1 0.3 0.2 0.6 0.4 1 0.4 0.4 0 0.8-0.1 1.2-0.3q0.1-0.1 0.3-0.2l0.1-0.1 0.3-0.2q0.4-0.3 0.9-0.7c-0.2 0.4-0.4 0.9-0.6 1.2-0.1 0.2-0.1 0.3-0.1 0.4q-0.1 0.1-0.1 0.3c-0.1 0.4 0 0.8 0.3 1.1 0.2 0.2 0.5 0.3 0.8 0.3 0.4-0.1 0.6-0.3 0.9-0.5 0.5-0.4 0.9-0.8 1-1.2 0.2-0.4 0.3-0.7 0.2-0.9 0-0.3-0.2-0.3-0.2-0.4q0 0 0.1 0 0 0 0 0 0 0 0.3 0.2c0.2 0 0.6 0.2 1 0.2q0.3 0.1 0.7 0 0.4-0.1 0.7-0.4c0.2-0.2 0.4-0.5 0.3-0.8 0-0.3-0.3-0.6-0.6-0.7q-0.2-0.2-0.5-0.2c-0.1-0.1-0.2-0.1-0.3-0.1q-0.3 0-0.7-0.1c0.2-0.1 0.4-0.3 0.5-0.4zm-0.4 1.3c0.1 0.1 0.2 0.1 0.3 0.1q0.1 0 0.3 0 0.2 0 0.3 0c0.1 0 0.2 0 0.3 0 0.2 0 0.3 0 0.3 0.1q0 0-0.2 0.1-0.2 0.1-0.4 0.1-0.1 0-0.3 0c-0.1 0-0.2 0.1-0.3 0.1q-0.2 0-0.3-0.1c-0.2 0-0.3-0.1-0.4-0.1q-0.1 0-0.2-0.1c-0.1 0.2-0.2 0.3-0.4 0.4-0.3 0.2-0.7 0.2-1 0.1q0 0 0 0 0.1 0.1 0.1 0.3 0 0.1-0.1 0.3c0 0.1-0.1 0.2-0.1 0.3q0 0.1-0.1 0.2-0.1 0.2-0.2 0.3-0.1 0.1-0.2 0.2-0.2 0.1-0.3 0.1c0-0.1 0-0.1 0.1-0.3q0.1-0.1 0.1-0.2 0.1-0.1 0.2-0.2c0-0.1 0-0.2 0.1-0.3q0-0.1 0-0.2c0.1-0.1 0.2-0.2 0.2-0.2q0-0.2 0.1-0.3c-0.6 0-0.9-0.2-0.9-0.2 0.1-0.1 0.4 0 1 0 0.2-0.1 0.6-0.1 0.8-0.3 0.3-0.1 0.4-0.3 0.3-0.5-0.1-0.2-0.4-0.4-0.7-0.5-0.3-0.2-0.6-0.2-0.8-0.1-0.3 0-0.6 0.2-0.6 0.5-0.1 0.2-0.1 0.5-0.1 0.6 0.1 0.2 0.1 0.2 0.1 0.3 0 0-0.1-0.1-0.2-0.2q0-0.1-0.1-0.1 0 0-0.1 0.1-0.2 0.1-0.4 0.1c-0.1 0.1-0.2 0.1-0.3 0.1q-0.2 0-0.3 0.1-0.2 0-0.4 0.1-0.2 0-0.3 0-0.4 0.1-0.4 0c0-0.1 0.1-0.1 0.3-0.2q0.1-0.1 0.3-0.1 0.2-0.1 0.4-0.1c0.1-0.1 0.2-0.1 0.3-0.2q0.1 0 0.3-0.1c0.1 0 0.3 0 0.4 0q0.1 0 0.2 0 0-0.2 0-0.5c0.1-0.2 0.2-0.4 0.4-0.6q-0.1 0-0.2 0-0.2-0.1-0.3-0.2c0 0-0.1-0.1-0.2-0.2q-0.1 0-0.2-0.1-0.1-0.1-0.2-0.1-0.1-0.1-0.3-0.2c-0.1 0-0.2-0.1-0.2-0.2q0 0 0.3 0 0.1 0 0.3 0.1 0.1 0 0.3 0.1c0.1 0 0.2 0 0.3 0.1q0.1 0.1 0.2 0.2c0.1 0.1 0.1 0.2 0.2 0.3q0.1 0.1 0.1 0.2 0.1-0.1 0.3-0.2c0.3-0.1 0.7 0 1.1 0.2q0 0 0 0 0-0.1 0.1-0.2 0.1-0.1 0.2-0.2c0.1 0 0.1-0.1 0.2-0.1q0.1-0.2 0.2-0.3 0-0.1 0.1-0.2 0.1-0.1 0.2-0.3c0-0.1 0.1-0.2 0.2-0.2q0 0 0 0.3 0 0.2-0.1 0.3 0 0.2-0.1 0.3c-0.1 0.1-0.1 0.2-0.2 0.3q-0.1 0.1-0.2 0.2c-0.1 0.1-0.2 0.1-0.3 0.2q-0.1 0-0.1 0c0.3 0.1 0.5 0.2 0.6 0.5q0.2 0.3 0.1 0.5 0.1 0 0.2 0 0.2 0 0.3 0z"></path>
      <path id="Layer" fill-rule="evenodd" class="s1"
            d="m16.7 9.3q0.1 0.1 0.2 0.2 0.1 0.1 0.2 0.2c0 0.1 0.1 0.1 0.1 0.2q0.1 0.1 0.2 0.2 0 0.2 0.1 0.2c-0.2 0.1-0.4 0.2-0.5 0.4q-0.2 0.2-0.2 0.4-0.1 0-0.2 0c-0.1 0-0.2-0.1-0.4-0.1q-0.1 0-0.3-0.1c-0.1 0-0.2 0.1-0.4 0.1q-0.1-0.1-0.3-0.1-0.2 0-0.4 0c-0.2 0.1-0.3 0.1-0.3 0.1q0 0.1 0.3 0.2 0.2 0 0.4 0.1 0.1 0 0.3 0 0.2 0 0.4 0c0.1 0 0.2 0.1 0.3 0.1q0.2 0 0.4 0 0.1-0.1 0.2-0.1 0 0.1 0 0.1c0 0.2 0.1 0.3 0.1 0.3 0.1 0 0-0.1 0-0.3 0-0.1 0.1-0.4 0.3-0.6 0.2-0.2 0.4-0.3 0.8-0.2 0.2 0 0.5 0.2 0.7 0.4 0.2 0.2 0.4 0.5 0.5 0.7 0 0.3-0.2 0.4-0.5 0.4-0.3 0.1-0.6 0-0.9-0.1-0.5-0.1-0.8-0.4-0.8-0.3-0.1 0 0.1 0.3 0.6 0.5q0 0.1-0.1 0.2c-0.1 0.1-0.2 0.1-0.2 0.2q-0.1 0.1-0.2 0.2c-0.1 0-0.1 0.1-0.2 0.2q-0.1 0.1-0.2 0.1-0.1 0.1-0.2 0.2c-0.1 0.1-0.2 0.2-0.2 0.2q0.1 0.1 0.4 0 0.1 0 0.2-0.1 0.2-0.1 0.3-0.2 0.1-0.1 0.2-0.2c0 0 0.1-0.1 0.2-0.2q0.1-0.1 0.1-0.2 0.1-0.2 0-0.3 0 0 0 0c0.3 0.1 0.7 0.2 1.1 0.2 0.1 0 0.3 0 0.5-0.2q0 0.1 0.1 0.2c0.1 0 0.2 0.1 0.3 0.2q0.1 0.1 0.3 0.2c0.1 0 0.2 0 0.3 0q0.2 0.1 0.3 0.1 0.2 0.1 0.3 0.1 0.3 0 0.4-0.1c0-0.1-0.1-0.1-0.3-0.2-0.1 0-0.2-0.1-0.3-0.1q-0.1 0-0.3-0.1-0.1 0-0.3-0.1c-0.1 0-0.1-0.1-0.2-0.1q-0.1-0.1-0.3-0.2-0.1 0-0.2 0 0.2-0.3 0.1-0.5c0-0.4-0.2-0.6-0.4-0.7q0.1 0 0.1 0c0.1-0.1 0.2 0 0.3-0.1q0.2 0 0.3-0.1c0.1-0.1 0.2-0.2 0.3-0.2q0.1-0.1 0.2-0.2 0.1-0.2 0.2-0.3 0.2-0.3 0.1-0.3c-0.1 0-0.2 0-0.3 0.2q-0.1 0-0.2 0.1-0.1 0.1-0.2 0.2-0.1 0.1-0.3 0.2c0 0-0.1 0-0.2 0.1q-0.1 0-0.3 0.1-0.1 0-0.1 0.1 0 0-0.1-0.1c-0.2-0.2-0.6-0.4-0.9-0.4q-0.2-0.1-0.3 0 0-0.1-0.1-0.3c0-0.1 0-0.2 0-0.3q-0.1-0.1-0.2-0.2c-0.1-0.1-0.2-0.2-0.2-0.2q-0.1-0.2-0.2-0.3-0.2-0.1-0.3-0.1-0.2-0.2-0.3-0.1c0 0.1 0.1 0.2 0.2 0.3q0.1 0.1 0.1 0.2z"></path>
      <path id="Layer" fill-rule="evenodd" class="s1"
            d="m51.2 8.5q0 0.3 0.1 0.6c0.2 0.3 0.4 0.4 0.6 0.5q0 0 0 0c-0.1 0.1-0.2 0.1-0.3 0.2q-0.2 0.1-0.3 0.2c0 0.1-0.1 0.2-0.1 0.3q-0.1 0.1-0.2 0.3 0 0.1-0.1 0.3 0 0.3 0.1 0.3c0 0 0.1-0.1 0.2-0.3q0-0.1 0.1-0.2 0.1-0.1 0.2-0.2 0-0.2 0.1-0.3c0.1 0 0.2-0.1 0.2-0.1q0.1-0.1 0.2-0.2 0.1-0.1 0.1-0.2 0.1 0 0.1 0c0.3 0.2 0.7 0.2 1 0.1q0.2 0 0.4-0.1 0 0.1 0.1 0.2c0 0.1 0.1 0.2 0.1 0.3q0.1 0.1 0.3 0.2c0.1 0 0.2 0.1 0.3 0.1q0.1 0.1 0.2 0.1 0.2 0.1 0.3 0.1 0.3 0 0.3 0c0-0.1-0.1-0.2-0.2-0.3q-0.1 0-0.2-0.1-0.2 0-0.3-0.1-0.1-0.1-0.2-0.1c-0.1-0.1-0.1-0.2-0.2-0.2q-0.1-0.1-0.2-0.2-0.1 0-0.2-0.1c0.1-0.1 0.3-0.3 0.3-0.5q0.1-0.3 0-0.5 0.1 0 0.3 0c0.1 0 0.2 0 0.3 0q0.2-0.1 0.4-0.1c0.1-0.1 0.2-0.1 0.3-0.2q0.2 0 0.3-0.1 0.2 0 0.3-0.1c0.2-0.1 0.4-0.1 0.3-0.2q0-0.1-0.3 0-0.2 0-0.4 0-0.1 0-0.3 0.1-0.2 0-0.3 0.1c-0.2 0-0.3 0-0.4 0.1q-0.2 0-0.3 0.1-0.1 0.1-0.2 0.1 0 0 0-0.1c-0.1-0.2-0.3-0.2-0.3-0.2 0 0.1 0.1 0.1 0.1 0.3 0.1 0.1 0.1 0.4 0 0.6-0.1 0.3-0.3 0.5-0.6 0.5-0.3 0.1-0.6 0-0.9-0.1-0.3-0.1-0.6-0.3-0.7-0.5-0.1-0.2 0.1-0.4 0.3-0.5 0.3-0.2 0.6-0.2 0.9-0.3 0.5 0 0.9 0.1 0.9 0 0 0-0.3-0.2-0.8-0.2q0-0.1 0.1-0.3c0 0 0.1-0.1 0.1-0.2q0-0.1 0.1-0.2c0-0.1 0-0.2 0.1-0.3q0-0.1 0.1-0.2 0.1-0.1 0.1-0.2c0.1-0.2 0.2-0.2 0.1-0.3q0 0-0.3 0.1-0.1 0.1-0.2 0.2-0.1 0.1-0.1 0.3-0.1 0.1-0.2 0.2c0 0.1-0.1 0.2-0.1 0.3q0 0.2 0 0.3 0 0.2 0.1 0.3 0 0-0.1 0c-0.3-0.1-0.6-0.1-1 0.1-0.1 0.1-0.3 0.2-0.4 0.4q-0.1-0.1-0.2-0.1c-0.1-0.1-0.2-0.1-0.3-0.2q-0.2 0-0.3 0c-0.2 0-0.3 0.1-0.4 0.1q-0.1 0-0.3 0-0.2 0-0.3 0.1-0.3 0.1-0.3 0.1c0 0.1 0.2 0.1 0.3 0.1 0.1 0 0.3 0 0.3 0q0.2 0 0.3 0 0.2 0 0.3 0c0.1 0 0.2 0 0.3 0q0.2 0.1 0.3 0.1 0.2 0 0.2-0.1z"></path>
      <path id="Layer" fill-rule="evenodd" class="s1"
            d="m74.2 13.4q0.1-0.3-0.1-0.6c-0.1-0.3-0.3-0.4-0.6-0.5q0 0 0.1 0c0.1-0.1 0.2-0.1 0.3-0.2q0.1-0.1 0.2-0.2c0.1-0.1 0.1-0.2 0.2-0.3q0.1-0.1 0.1-0.3 0.1-0.1 0.1-0.3 0-0.3 0-0.3c-0.1 0-0.2 0.1-0.2 0.2q-0.1 0.2-0.2 0.3-0.1 0.1-0.1 0.2-0.1 0.2-0.2 0.3c-0.1 0-0.1 0.1-0.2 0.1q-0.1 0.1-0.2 0.2-0.1 0.1-0.1 0.2 0 0 0 0c-0.4-0.2-0.8-0.2-1.1-0.2q-0.2 0.1-0.3 0.2 0-0.1-0.1-0.2c-0.1-0.1-0.1-0.2-0.2-0.3q-0.1-0.1-0.2-0.2c-0.1 0-0.2-0.1-0.3-0.1q-0.2-0.1-0.3-0.1-0.2-0.1-0.3-0.1-0.3 0-0.3 0c0 0.1 0.1 0.2 0.2 0.2q0.2 0.1 0.3 0.2 0.1 0 0.2 0.1 0.1 0.1 0.2 0.1c0.1 0.1 0.2 0.2 0.2 0.2q0.1 0.1 0.3 0.2 0.1 0 0.2 0.1c-0.2 0.1-0.3 0.3-0.4 0.5q0 0.3 0 0.5-0.1 0-0.2 0c-0.1 0-0.3 0-0.4 0q-0.1 0.1-0.3 0.1c-0.1 0.1-0.2 0.1-0.3 0.2q-0.2 0-0.4 0.1-0.2 0-0.3 0.1c-0.2 0.1-0.3 0.1-0.3 0.2q0 0.1 0.4 0 0.1 0 0.3 0 0.2 0 0.4-0.1 0.1 0 0.3-0.1c0.1 0 0.2 0 0.3-0.1q0.2 0 0.4-0.1 0.1-0.1 0.1-0.1 0.1 0 0.1 0.1c0.1 0.1 0.2 0.2 0.2 0.2 0-0.1 0-0.1-0.1-0.3 0-0.1 0-0.4 0.1-0.6 0-0.3 0.3-0.5 0.6-0.5 0.2-0.1 0.5 0 0.8 0.1 0.3 0.1 0.6 0.3 0.7 0.5 0.1 0.2 0 0.4-0.3 0.5-0.2 0.2-0.6 0.2-0.8 0.3-0.6 0-0.9-0.1-1 0 0 0 0.3 0.2 0.9 0.2q-0.1 0.1-0.1 0.3c0 0-0.1 0.1-0.2 0.2q0 0.1 0 0.2c-0.1 0.1-0.1 0.2-0.1 0.3q-0.1 0.1-0.2 0.2 0 0.1-0.1 0.2c-0.1 0.2-0.1 0.2-0.1 0.3q0.1 0 0.3-0.1 0.1-0.1 0.2-0.2 0.1-0.1 0.2-0.3 0.1-0.1 0.1-0.2c0-0.1 0.1-0.2 0.1-0.3q0.1-0.2 0.1-0.3 0-0.2-0.1-0.3 0 0 0 0c0.3 0.1 0.7 0.1 1-0.1 0.2-0.1 0.3-0.2 0.4-0.4q0.1 0.1 0.3 0.1c0 0 0.1 0.1 0.3 0.1q0.1 0.1 0.3 0.1c0.1 0 0.2-0.1 0.3-0.1q0.2 0 0.3 0 0.2 0 0.4-0.1 0.2-0.1 0.2-0.1c0-0.1-0.1-0.1-0.3-0.1-0.1 0-0.2 0-0.3 0q-0.1 0-0.3 0-0.2 0-0.3 0c-0.1 0-0.2 0-0.3 0q-0.1-0.1-0.3-0.1-0.1 0-0.2 0.1z"></path>
      <path id="Layer" fill-rule="evenodd" class="s1"
            d="m94.9 5q-0.2-0.1-0.7-0.1-0.4-0.1-1.1-0.2-0.3 0-0.7-0.1-0.3 0-0.8 0-1-0.1-2.2-0.1 0 0 0 0c-1.7 0.1-3.7 0.3-5.9 0.6q0 0 0 0c0.1 0-0.3-0.3-0.9-0.4-0.4-0.1-0.7-0.2-1.1-0.2-0.4 0-0.7 0-1-0.1-0.4 0-0.7-0.1-1-0.2-0.1-0.1-0.3-0.2-0.5-0.4-0.1 0.2-0.2 0.3-0.2 0.5q-0.1 0.2 0 0.4c0 0.4 0.2 0.8 0.5 1 0.2 0.1 0.5 0.2 0.7 0.2-3.2 0.8-6.8 1.9-10.5 3q-0.8 0.3-1.7 0.5 0.2-0.1 0.3-0.4c0.2-0.4 0.1-0.9 0-1.3q-0.1-0.3-0.3-0.5l-0.2-0.3q-0.1-0.2-0.3-0.4-0.1-0.1-0.2-0.3l-0.1 0.6c0 0-0.1 0.1-0.1 0.1q0 0.1 0 0.1-0.2 0.2-0.3 0.4c-0.3 0.3-0.6 0.5-0.9 0.8-0.3 0.3-0.6 0.6-0.7 1-0.2 0.3-0.1 0.7-0.1 0.9q0.1 0.1 0.1 0.2c-2.6 0.7-5.4 1.4-8.2 1.8q-2.3 0.3-4.5 0.4 0.2-0.2 0.4-0.3 0.3-0.3 0.4-0.6c0.1-0.1 0.1-0.3 0.1-0.2q0-0.1 0-0.1 0 0 0 0l0.1 0.1q0 0 0.1 0.1 0.2 0.2 0.6 0.4c0.4 0.3 0.9 0.4 1.4 0.3 0.4-0.1 0.8-0.3 1.1-0.6 0.3-0.3 0.4-0.7 0.4-1.2q0-0.3-0.1-0.6c-0.1-0.2-0.3-0.4-0.5-0.4q-0.2-0.1-0.5-0.2 0 0 0.1 0c0.8-0.1 1.9-0.3 2.4-1.2 0.1-0.2 0.2-0.5 0.1-0.8q-0.1-0.4-0.3-0.6c-0.3-0.4-0.8-0.6-1.3-0.6-0.5 0-1 0.2-1.4 0.4q-0.2 0.1-0.3 0.2c-0.1 0.1-0.1 0.1-0.1 0.1q0 0 0-0.1v-0.1l0.1-0.2q0-0.1 0.1-0.3c0-0.5-0.1-1-0.4-1.3-0.3-0.3-0.8-0.4-1.2-0.3-0.4 0.1-0.7 0.3-0.9 0.6-0.5 0.4-0.9 0.8-1.1 1.3-0.1 0.4-0.1 0.8 0 1q0 0.1 0.1 0.2-0.1-0.1-0.2-0.1c-0.2-0.1-0.6-0.3-1-0.4q-0.4-0.1-0.8 0-0.4 0.1-0.8 0.4c-0.3 0.2-0.5 0.6-0.4 1 0.1 0.4 0.3 0.7 0.7 1q0.3 0.1 0.6 0.2c0.1 0 0.2 0 0.3 0.1q0 0 0.1 0c-0.1 0-0.6 0.2-1.3 0.6q-0.5 0.2-1.3 0.5 0 0 0 0c0.1-0.1 0.2-0.4 0.1-0.6 0-0.4-0.3-0.8-0.6-1.1-0.3-0.3-0.5-0.6-0.6-0.9 0-0.1 0-0.3 0-0.5-0.6 0.2-0.8 0.3-1.1 0.5-0.4 0.3-0.7 0.6-0.9 0.9-0.3 0.4-0.4 0.8-0.5 1.2q-0.1 0.7 0 1-0.3 0-0.5 0-0.8 0-1.4 0-0.7 0-1.1 0c-2.8-0.6-5.6-1.3-8.2-1.9q0.1-0.1 0.3-0.1c0.3 0 0.7-0.1 1.2-0.2q0.5-0.2 1.1-0.4c0.3-0.1 0.7-0.3 1.1-0.5q0.1 0.1 0.4 0.2c0.2 0 0.4 0.1 0.7 0.2q0.3 0 0.6 0.1c0.2 0.1 0.5 0.1 0.7 0.1q0.3 0.1 0.7 0.1 0.2 0.1 0.4 0.1c0 0 0 0.3 0.3 0.6 0.2 0.2 0.5 0.3 0.8 0.2 0.2 0 0.5-0.1 0.7-0.3 0.2-0.1 0.3-0.5 0.2-0.8-0.1-0.3-0.3-0.5-0.6-0.5-0.3-0.1-0.6 0-0.8 0.1-0.3 0.2-0.4 0.4-0.4 0.5q-0.3-0.1-0.6-0.2-0.3-0.1-0.6-0.1-0.4-0.1-0.7-0.2c-0.2 0-0.4-0.1-0.7-0.1q-0.3-0.1-0.6-0.1-0.1 0-0.2 0 0.4-0.2 0.7-0.4 0.6-0.4 1-0.7 0.1 0 0.1-0.1 0.2 0.1 0.5 0.2c0.2 0 0.5 0 0.8-0.2 0.2-0.1 0.4-0.3 0.4-0.7 0.1-0.3-0.2-0.6-0.5-0.6-0.3-0.1-0.5-0.1-0.8 0-0.2 0-0.5 0.2-0.6 0.4-0.1 0.3-0.1 0.5 0 0.6q0.1 0.1 0.1 0.1-0.1 0.1-0.1 0.1-0.5 0.3-1.1 0.6-0.4 0.3-1 0.5-0.5 0.3-1.1 0.5-0.1 0-0.3 0.1 0 0 0-0.1c0 0 0.1-0.1 0.1-0.2q-0.1-0.2-0.1-0.3-0.1-0.1-0.1-0.2 0 0 0 0c0.1 0 0.2-0.1 0.3-0.2 0.1-0.2 0.2-0.5 0-0.7-0.1-0.2-0.3-0.3-0.5-0.4q-0.4 0-0.7 0.1-0.2 0.1-0.3 0.2c-0.1 0.1-0.1 0.2-0.1 0.4 0 0.3 0.2 0.5 0.4 0.6q0.3 0 0.4 0 0.1 0.1 0.1 0.1 0.1 0.1 0.1 0.3c0 0 0 0.1 0.1 0.2q0 0.1 0.1 0.2 0 0 0 0-0.3 0.1-0.6 0.2-0.6 0.2-1.1 0.3-0.4 0.2-0.7 0.2-0.7-0.1-1.4-0.3c-3.2-0.8-6.4-1.4-9.3-1.8q0 0 0 0c0.3-0.1 0.6-0.3 0.9-0.6 0.3-0.4 0.5-0.9 0.4-1.5q0-0.4-0.3-0.7-0.1-0.2-0.2-0.4-0.1-0.1-0.2-0.2h-0.1c0-0.1 0-0.1-0.1 0l-0.1 0.1c-0.1 0.2-0.1 0.2-0.2 0.3q-0.2 0.1-0.3 0.3-0.3 0.2-0.6 0.3c-0.4 0.3-0.9 0.4-1.3 0.5-0.5 0.2-1 0.4-1.3 0.6-0.6 0.3-0.8 0.6-1 0.9q-2.6-0.2-4.7 0-2.4 0.2-4.1 0.6-1.6 0.4-2.5 0.7-0.8 0.3-0.7 0.3 0 0 0.9-0.2 0.4-0.2 1.1-0.3c0.4-0.1 0.9-0.3 1.4-0.4q0.6-0.1 1.3-0.2 0.3 0.1 0.7 0.2 0.4 0.2 0.8 0.5 0.4 0.2 0.8 0.5 0.5 0.3 0.9 0.6c0.2 0.2 0.5 0.5 0.8 0.6q0.2 0.1 0.3 0.2c-0.5-0.1-1.1 0-1.6 0.4-0.2 0.2-0.3 0.4-0.4 0.7q0 0.4 0.1 0.7c0.2 0.5 0.6 0.8 1 1 0.5 0.2 1 0.2 1.5 0.1q0.2 0 0.3-0.1c0.2 0 0.1 0 0.1 0q0 0 0.1 0h-0.1l-0.1 0.1-0.1 0.2q-0.1 0.1-0.2 0.3c-0.2 0.4-0.2 0.9-0.1 1.3 0.2 0.5 0.7 0.7 1.1 0.7 0.4 0.1 0.7-0.1 1-0.2 0.6-0.2 1.1-0.4 1.5-0.8 0.3-0.4 0.4-0.7 0.4-1q0-0.1-0.1-0.2 0.1 0.1 0.2 0.2c0.1 0.2 0.4 0.4 0.8 0.7q0.3 0.2 0.7 0.3 0.4 0.1 0.9-0.1c0.3-0.1 0.6-0.4 0.7-0.8 0.1-0.4 0-0.8-0.3-1.1q-0.2-0.3-0.5-0.5c0 0-0.2-0.1-0.2-0.1-0.1-0.1-0.1-0.1-0.1-0.1 0 0 0.1 0 0.2-0.1q0.2-0.1 0.3-0.3c0.2-0.3 0.4-0.6 0.4-1 0.1-0.7-0.3-1.5-1.1-1.8-0.4-0.2-0.9-0.2-1.3 0q-0.3 0.1-0.6 0.4c0 0-0.2 0.2-0.1 0.2q-0.1 0-0.1 0 0 0 0 0v-0.1q0 0-0.1-0.1-0.1-0.4-0.3-0.6c-0.4-0.4-0.8-0.7-1.3-0.8-0.4-0.1-0.9 0-1.2 0.2-0.4 0.2-0.7 0.5-0.8 0.9q-0.2 0.3-0.1 0.6c0 0.3 0.1 0.5 0.3 0.6q0.1 0.1 0.2 0.2-0.1 0-0.2-0.1c-0.3-0.1-0.6-0.3-0.9-0.4q-0.4-0.3-0.8-0.6c-0.3-0.2-0.6-0.3-0.9-0.5q-0.4-0.3-0.8-0.6-0.5-0.3-1-0.4-0.1 0-0.2-0.1 1.1-0.1 2.3-0.2 2.4-0.1 5.3 0.1c2.4 0.2 5 0.6 7.7 1.1q0.1 0.1 0.2 0.3 0.1 0.3 0.2 1c0 0.4 0.2 0.9 0.5 1.3 0.3 0.4 0.6 0.7 1.1 1 0.4 0.2 0.9 0.3 1.4 0.3q0.2 0 0.3 0 0.1 0 0.2 0c0.1 0 0.2 0 0.3-0.1 0.1 0 0.1-0.2 0.1-0.2v-0.2q0.1-0.1 0.1-0.3c0.1-0.5 0.1-1-0.1-1.4-0.2-0.4-0.5-0.7-0.7-0.8-0.2-0.1-0.4-0.1-0.4-0.1 0 0.1 0.1 0.1 0.3 0.2 0.2 0.1 0.5 0.4 0.6 0.8 0.1 0.3 0.1 0.8 0 1.2q-0.1 0.2-0.1 0.3v0.1q-0.1 0-0.2-0.1c-0.1-0.1-0.2-0.2-0.4-0.3q-0.2-0.2-0.4-0.3c-0.1-0.1-0.2-0.2-0.3-0.3q-0.2-0.2-0.3-0.3-0.1-0.3-0.1-0.5c-0.1-0.2 0-0.4-0.1-0.4 0-0.1-0.2 0.1-0.2 0.5q0 0.2 0.1 0.5 0.1 0.2 0.3 0.5 0.2 0.2 0.4 0.3c0.1 0.1 0.3 0.2 0.4 0.3q0.3 0.2 0.5 0.2 0 0.1 0 0.1-0.2 0-0.3 0-0.7-0.1-1.3-0.4c-0.3-0.2-0.6-0.5-0.9-0.9-0.3-0.3-0.4-0.7-0.5-1.1-0.1-0.4-0.2-0.8-0.4-1q-0.1-0.1-0.1-0.1 2.4 0.5 5 1.1c2 0.5 4.1 1 6.2 1.5q0 0.1-0.2 0.3c-0.1 0.2-0.3 0.6-0.3 1.1-0.1 0.4 0.1 1.1 0.6 1.5 0.3 0.4 0.8 0.6 1.3 0.9 0.4 0.3 0.9 0.5 1.3 0.8q0.3 0.1 0.5 0.3c0.1-0.2 0.1-0.4 0.1-0.5q0.1-0.2 0.1-0.3 0.1-0.3 0.2-0.5c0.2-0.6 0.4-1.1 0.4-1.6-0.1-0.5-0.3-0.9-0.5-1.1q-0.2-0.1-0.3-0.2 1.7 0.4 3.4 0.7c2.2 0.3 4.4 0.6 6.6 0.6q1.6 0.1 3.1 0-0.1 0-0.1 0c-0.4 0.1-0.8 0.4-1.3 0.7-0.5 0.3-1.1 0.8-1.6 1.4q-0.3 0.3-0.6 0.8c0 0.1-0.2 0.4-0.4 0.7l-0.1 0.2c0 0.1 0 0.1 0 0.1h0.1l0.1-0.1 0.5-0.1q0.3-0.1 0.6-0.2 0.2 0 0.5-0.1 0.4-0.2 0.9-0.3 1-0.3 2-0.6c0.7-0.2 1.4-0.5 1.8-1 0.4-0.5 0.4-1.1 0.3-1.5q0-0.2-0.1-0.3 0.4-0.1 0.9-0.1 2.5-0.4 4.9-1-0.1 0.2-0.3 0.5c-0.1 0.2-0.2 0.4-0.3 0.6q-0.2 0.3-0.3 0.6c-0.1 0.2-0.2 0.4-0.3 0.6q-0.1 0.3-0.2 0.6-0.2 0.3-0.3 0.6 0 0 0 0.1c-0.1-0.1-0.2-0.1-0.4-0.2-0.2 0.1-0.4 0.1-0.5 0.3-0.1 0.2-0.1 0.4-0.1 0.6 0.1 0.2 0.3 0.3 0.5 0.3 0.2 0.1 0.4 0 0.6-0.1 0.1-0.2 0.2-0.4 0.1-0.5q0-0.2-0.1-0.3 0.1 0 0.1-0.1 0.2-0.3 0.4-0.6 0.1-0.2 0.2-0.4 0 0.1 0.1 0.3c0 0.1 0.1 0.3 0.1 0.4q0.1 0.2 0.3 0.4c0 0.2 0.1 0.3 0.2 0.4q0.1 0.2 0.2 0.4 0.1 0.2 0.2 0.3c-0.1 0-0.2 0.1-0.3 0.3 0 0.1 0 0.4 0.2 0.6 0.1 0.1 0.3 0.2 0.4 0.3 0.2 0 0.4 0 0.6-0.1 0.2 0 0.3-0.1 0.3-0.2q0.1-0.2 0-0.3c-0.1-0.3-0.2-0.4-0.3-0.5-0.3-0.2-0.6-0.1-0.6-0.1q0 0 0 0-0.1-0.2-0.2-0.4-0.1-0.2-0.2-0.5-0.1-0.2-0.2-0.4c-0.1-0.1-0.1-0.3-0.2-0.4q-0.2-0.2-0.3-0.4-0.1-0.2-0.3-0.3 0 0 0 0 0.2-0.3 0.3-0.6c0.1-0.2 0.2-0.4 0.3-0.6q0.2-0.3 0.3-0.6 0.1-0.4 0.1-0.6c2.7-0.6 5.3-1.4 7.7-2.2 4.6-1.4 8.8-2.8 12.5-3.5-0.4 0.1-0.9 0.3-1.5 0.5q-0.7 0.4-1.4 1c-0.4 0.3-0.8 0.7-1.2 1.1q-0.6 0.6-1.1 1.2-0.6 0.7-1 1.3-0.1 0.2-0.2 0.3 0-0.3 0-0.5c-0.2-0.7-0.9-1.3-1.7-1.3-0.5-0.1-0.9 0.1-1.3 0.4q-0.2 0.3-0.4 0.6c0 0.1-0.1 0.3-0.1 0.2q0 0.1 0 0.1 0 0 0 0v-0.1q-0.1 0-0.1-0.1-0.3-0.3-0.6-0.4c-0.4-0.3-1-0.4-1.5-0.3-0.4 0.1-0.8 0.3-1 0.6-0.3 0.3-0.5 0.7-0.5 1.2q0 0.3 0.2 0.6c0.1 0.2 0.3 0.4 0.5 0.4q0.2 0.1 0.4 0.2 0 0 0 0c-0.9 0.1-1.9 0.3-2.5 1.2-0.1 0.2-0.1 0.5-0.1 0.8q0.1 0.3 0.4 0.6c0.3 0.4 0.8 0.6 1.2 0.6 0.6 0 1.1-0.2 1.5-0.4q0.1-0.1 0.3-0.2c0.1-0.1 0-0.1 0-0.1h0.1q0 0 0 0l-0.1 0.2v0.2q-0.1 0.1-0.1 0.3c-0.1 0.5 0.1 0.9 0.4 1.3 0.3 0.3 0.8 0.4 1.2 0.3 0.4-0.1 0.6-0.4 0.9-0.6 0.5-0.4 0.9-0.8 1-1.3 0.2-0.4 0.2-0.8 0.1-1q-0.1-0.1-0.1-0.2 0.1 0.1 0.2 0.1c0.2 0.1 0.5 0.3 1 0.4q0.3 0 0.7 0 0.5-0.1 0.9-0.4c0.2-0.2 0.4-0.6 0.4-1-0.1-0.4-0.4-0.7-0.7-1q-0.3-0.1-0.6-0.2c-0.1 0-0.3-0.1-0.3-0.1-0.1 0-0.1 0-0.2 0 0.1 0 0.1 0 0.2-0.1q0.1-0.2 0.2-0.5 0 0 0-0.1 0.2-0.2 0.5-0.5 0.4-0.6 1-1.3 0.2-0.1 0.3-0.3c0.3 0.2 0.7 0.4 1.3 0.5 0.5 0.1 1.1 0.1 1.7 0.1q0.8-0.1 1.6-0.6c0.2-0.1 0.5-0.3 0.6-0.7q0-0.2 0-0.4 0-0.1 0.1-0.1c0-0.1 0.1-0.2 0.5-0.4l-0.1-0.1c-0.1 0 0 0-0.1 0h-0.2l-0.4-0.1h-0.2-0.2q-0.4 0-0.8 0-1 0-1.7 0.2-0.5 0.2-0.8 0.3 0.4-0.3 0.8-0.6c0.4-0.4 0.9-0.7 1.3-0.9q0.8-0.5 1.5-0.7c0.9-0.3 1.6-0.4 1.5-0.5q0 0-0.1 0 1-0.2 2-0.4-0.2 0.1-0.3 0.3c-0.2 0.3-0.3 0.8-0.4 1.2q0 0 0 0c0 0.1 0 0.1-0.1 0.2q-0.1 0.2-0.3 0.4 0.6 0 1.2-0.1c0.4 0 0.8-0.1 1.2-0.2q0.6-0.1 1.2-0.4c0.4-0.2 0.7-0.5 1-0.8q0.2-0.2 0.3-0.4c0.1-0.1 0.1-0.3 0.1-0.4q0 0 0-0.1 1.1 0 2 0 0.4 0 0.8 0.1 0.4 0 0.7 0 0.7 0.1 1.1 0.2 0.5 0 0.7 0 0.2 0 0.3 0-0.1 0-0.3 0zm-54.2 3.5c0.2 0 0.4 0 0.6 0 0.1 0.1 0.3 0.2 0.3 0.4 0.1 0.1 0.1 0.3-0.1 0.4-0.1 0.1-0.3 0.2-0.5 0.2q-0.3 0-0.5-0.1c-0.3-0.2-0.4-0.4-0.5-0.4q0.1 0 0.2 0.1c0.4 0 0.7 0.1 0.7 0 0-0.1-0.2-0.2-0.6-0.3q0 0 0 0c0-0.1 0.2-0.2 0.4-0.3zm-2.2-1.9c0-0.1 0-0.3 0.1-0.4 0.1-0.1 0.3-0.2 0.5-0.3 0.2 0 0.4 0 0.6 0 0.1 0.1 0.3 0.2 0.3 0.3 0 0.2-0.2 0.3-0.3 0.4q-0.3 0.2-0.6 0.2-0.2 0-0.3 0c0.4-0.3 0.6-0.5 0.6-0.5 0-0.1-0.3 0.1-0.8 0.4q0 0-0.1-0.1zm-4 0.7c-0.1-0.2-0.1-0.3-0.1-0.3-0.1 0-0.1 0.1-0.1 0.3q0 0.1 0 0.2-0.1 0-0.3-0.1c-0.1-0.1-0.2-0.2-0.1-0.3 0-0.1 0-0.2 0.2-0.2 0.1-0.1 0.2-0.2 0.4-0.1q0.2 0 0.3 0.2 0.2 0.2 0.1 0.4c-0.1 0.1-0.2 0.2-0.2 0.2q-0.1-0.1-0.1-0.1 0-0.1-0.1-0.2zm-19.4 1.2c0.1-0.3 0.3-0.6 0.6-0.7 0.3-0.2 0.7-0.2 1-0.2 0.5 0.1 0.8 0.4 1.1 0.7q0.2 0.2 0.3 0.5l0.1 0.2q0 0.1 0.1 0.3 0.1 0.3 0.1 0.6c0.1-0.2 0.2-0.5 0.3-0.7q0.1-0.1 0.1-0.1l0.1-0.1q0 0 0.1-0.1 0.2-0.2 0.4-0.3c0.4-0.1 0.8-0.1 1.1 0 0.6 0.2 1 0.9 0.9 1.5 0 0.3-0.1 0.6-0.3 0.8q-0.1 0.1-0.3 0.3c-0.1 0.1-0.4 0.2-0.7 0.3q0.3 0.1 0.6 0.3c0.1 0 0.2 0.1 0.3 0.1q0.2 0.2 0.4 0.4c0.2 0.3 0.4 0.6 0.3 0.9-0.1 0.4-0.3 0.6-0.6 0.7q-0.4 0.2-0.8 0.1-0.4-0.1-0.6-0.2c-0.4-0.3-0.7-0.5-0.9-0.7q-0.2-0.2-0.3-0.2 0 0 0 0 0 0 0 0c0 0 0.1 0.1 0.1 0.4-0.1 0.2-0.2 0.5-0.5 0.8-0.3 0.3-0.8 0.5-1.4 0.7-0.3 0.1-0.6 0.2-1 0.2-0.3-0.1-0.6-0.3-0.7-0.6-0.1-0.4-0.1-0.8 0.2-1.1q0-0.2 0.1-0.3c0.1-0.1 0.1-0.1 0.3-0.3 0.3-0.2 0.6-0.6 1-0.9q-0.6 0.2-1.2 0.4h-0.3l-0.1 0.1q-0.2 0-0.3 0c-0.5 0.1-0.9 0.1-1.3-0.1-0.3-0.1-0.6-0.4-0.7-0.7-0.2-0.4-0.1-0.8 0.2-1 0.3-0.3 0.7-0.3 1.1-0.4 0.4 0 0.8 0.1 1.3 0.2 0.2 0 0.5 0.1 0.8 0l0.5-0.1-0.4-0.3c-0.4-0.2-0.7-0.3-1-0.5q-0.1-0.2-0.2-0.4 0-0.2 0.1-0.5zm2.8-1.8q-0.2 0-0.5 0c0.2-0.2 0.5-0.4 0.9-0.6 0.4-0.2 0.8-0.3 1.3-0.5q0.7-0.2 1.4-0.5 0.3-0.2 0.6-0.4-0.1 0.1-0.1 0.2c-0.1 0.1-0.1 0.2-0.1 0.3q-0.1 0.1-0.2 0.3-0.1 0.1-0.2 0.2c-0.1 0.2-0.1 0.3-0.1 0.4q0.1 0 0.3-0.2 0.2-0.1 0.3-0.3 0.1-0.1 0.2-0.2 0-0.2 0.1-0.3c0.1-0.1 0.1-0.2 0.2-0.3q0-0.2 0.1-0.3 0-0.2 0-0.3 0-0.1 0-0.1c0 0 0 0 0.1 0.1q0.1 0.1 0.2 0.2 0.1 0.3 0.2 0.6c0.1 0.5-0.1 1-0.3 1.3-0.2 0.3-0.5 0.5-0.7 0.6q-0.2 0.1-0.3 0.1-1.7-0.2-3.4-0.3zm31.9 2.6q-0.3 0-0.5-0.2c-0.3-0.1-0.5-0.4-0.6-0.7 0-0.4 0.1-0.6 0.3-0.8q0.4-0.4 0.7-0.4 0.4-0.1 0.8 0c0.4 0 0.7 0.2 0.9 0.2q0.4 0.2 0.4 0.2 0 0 0 0 0 0 0 0c0-0.1-0.1-0.1-0.2-0.4 0-0.2 0-0.5 0.2-0.9 0.2-0.4 0.6-0.8 1.1-1.2 0.2-0.2 0.5-0.4 0.8-0.5 0.3 0 0.7 0.1 0.9 0.3 0.2 0.3 0.3 0.7 0.2 1.1q0 0.2 0 0.3c-0.1 0.1-0.1 0.2-0.2 0.4-0.1 0.3-0.4 0.8-0.6 1.2q0.5-0.4 1-0.7l0.2-0.2 0.2-0.1q0.1-0.1 0.2-0.2c0.4-0.2 0.8-0.3 1.2-0.3 0.4 0 0.8 0.2 1 0.4 0.2 0.3 0.3 0.7 0.1 1-0.1 0.4-0.5 0.6-0.9 0.8-0.4 0.1-0.8 0.2-1.2 0.3-0.3 0-0.5 0.1-0.8 0.2l-0.5 0.3 0.6 0.1c0.4 0.1 0.7 0.1 1 0.2q0.3 0.1 0.4 0.3 0.1 0.2 0.1 0.4c0 0.4-0.2 0.7-0.4 1-0.2 0.2-0.5 0.4-0.9 0.4-0.4 0.1-0.8 0-1.2-0.2q-0.3-0.1-0.5-0.4l-0.1-0.1q-0.1-0.1-0.2-0.2-0.1-0.3-0.3-0.5c0 0.2 0 0.5-0.1 0.7q0 0.1 0 0.1v0.1q-0.1 0.1-0.1 0.2-0.1 0.2-0.3 0.4c-0.3 0.3-0.7 0.4-1 0.4-0.7 0-1.3-0.5-1.4-1.1-0.1-0.3-0.1-0.6 0-0.8q0.1-0.2 0.2-0.4c0.1-0.1 0.3-0.4 0.5-0.5q-0.3-0.1-0.6-0.1c-0.2 0-0.3 0-0.4-0.1zm-5.5 1c0.1-0.3 0.3-0.6 0.5-1q0.3-0.4 0.8-0.7 0.1-0.1 0.3-0.2-0.1 0.1-0.2 0.3-0.1 0.1-0.2 0.4c-0.1 0.1 0 0.2-0.1 0.4q0 0.2-0.1 0.4 0 0.2 0 0.4c0 0.2 0.1 0.4 0.1 0.4 0.1 0 0.1-0.2 0.2-0.4 0-0.1 0.1-0.3 0.1-0.4q0-0.2 0.1-0.4 0-0.1 0.1-0.3c0-0.2 0.1-0.3 0.1-0.4q0.1-0.1 0.2-0.3 0-0.1 0-0.2c0.1 0.5 0.4 0.8 0.6 1 0.3 0.3 0.6 0.6 0.7 0.9 0.1 0.3-0.1 0.6-0.2 0.7q0 0 0 0-0.5 0.2-1 0.3-0.7 0.1-1.4 0.1-0.4 0-0.8 0c0.1-0.2 0.1-0.5 0.2-1zm-3.8 1.5c0.1 0.2 0.3 0.6 0.3 1 0 0.4-0.2 0.9-0.4 1.4q-0.1 0.3-0.2 0.6 0 0.1-0.1 0.2 0-0.1 0-0.2c-0.1-0.1-0.1-0.3-0.2-0.4q0-0.3-0.1-0.5c-0.1-0.1-0.2-0.2-0.3-0.4q0-0.2-0.1-0.4-0.1-0.2-0.2-0.5c-0.1-0.2-0.1-0.4-0.2-0.4-0.1 0-0.1 0.2 0 0.5q0 0.2 0.1 0.5 0 0.2 0.1 0.4 0.1 0.3 0.2 0.5c0.1 0.1 0.1 0.3 0.2 0.4q0.1 0.3 0.2 0.4 0.1 0.1 0.1 0.1-0.6-0.4-1.2-0.7c-0.5-0.3-0.9-0.6-1.3-0.9-0.4-0.4-0.5-0.8-0.6-1.2 0-0.7 0.3-1.2 0.4-1.3q1.5 0.3 3 0.6 0 0 0 0c0 0.1 0.1 0.1 0.3 0.3zm9.8 0.7c-2.2-0.1-4.4-0.4-6.6-0.7q-0.2 0-0.5-0.1 0.2 0 0.3 0 0.7 0 1.4 0c0.5 0 1-0.1 1.5-0.2q0.7-0.1 1.4-0.4 0.7-0.3 1.3-0.6 0.7-0.4 1-0.7-0.2 0.2-0.3 0.5c-0.1 0.3-0.1 0.6 0 1 0.1 0.5 0.5 0.9 1 1.2q-0.3 0-0.5 0zm5.7 0.3c0 0.4 0 0.9-0.4 1.3-0.4 0.5-1 0.7-1.7 0.9q-1 0.3-2 0.6-0.5 0.1-1 0.2 0.1 0 0.1 0 0.2-0.2 0.5-0.4c0.1-0.1 0.2-0.2 0.4-0.3q0.2-0.2 0.4-0.4 0.2-0.2 0.3-0.4c0.3-0.2 0.4-0.4 0.4-0.5-0.1 0-0.3 0.1-0.5 0.3-0.2 0.1-0.3 0.2-0.5 0.3-0.1 0.2-0.2 0.3-0.4 0.4q-0.2 0.2-0.4 0.3c-0.1 0.2-0.3 0.3-0.4 0.4q-0.2 0.1-0.4 0.3-0.2 0.2-0.3 0.3 0 0 0 0c0 0-0.1 0-0.1 0l0.1-0.1 0.1-0.1q0.2-0.4 0.5-0.8c0.5-0.6 1-1 1.5-1.4 0.7-0.5 1.3-0.8 1.5-1q1.1 0 2.2-0.2 0.1 0.1 0.1 0.3zm4.1 2.6q0 0.1-0.2 0.2-0.1 0.1-0.2 0.1-0.1 0-0.2-0.2c0-0.1 0-0.1 0-0.2q0.1-0.1 0.2-0.2 0.1 0 0.3 0 0 0 0 0-0.1 0.3-0.1 0.4 0.1 0 0.2-0.2 0 0.1 0 0.1zm2.3 1.3c0.1 0 0-0.2-0.1-0.4 0.1 0 0.2 0 0.4 0.2 0.1 0.1 0.2 0.2 0.2 0.3q0 0.2-0.1 0.2-0.1 0.1-0.3 0c-0.2-0.1-0.3-0.1-0.3-0.2q-0.2-0.2-0.2-0.3 0-0.1 0.1-0.2 0 0 0 0c0.2 0.3 0.3 0.4 0.3 0.4zm2.7-6.7c0-0.2 0-0.4 0.1-0.7 0.2-0.3 0.5-0.6 0.8-0.8 0.3-0.3 0.6-0.5 0.9-0.8q0.1-0.2 0.3-0.5 0 0.1-0.1 0.2c0 0.1 0 0.2-0.1 0.4q0 0.2-0.1 0.4c0 0.1 0 0.2-0.1 0.3q-0.1 0.2-0.2 0.4-0.1 0.2-0.2 0.3c-0.1 0.3-0.2 0.4-0.1 0.4 0 0.1 0.2 0 0.3-0.2q0.2-0.1 0.3-0.3 0.1-0.2 0.2-0.4 0.1-0.2 0.2-0.4c0-0.2 0.1-0.3 0.1-0.5q0.1-0.2 0-0.4 0-0.1 0-0.2 0.1 0.1 0.1 0.2 0.2 0.2 0.3 0.4c0.1 0.4 0.2 0.8 0.1 1.1-0.1 0.3-0.3 0.5-0.4 0.6q-0.1 0-0.1 0.1-1.1 0.3-2.3 0.6 0 0 0-0.2zm10.2 2.5c0.1 0 0.2 0 0.3 0.1q0.3 0 0.5 0.2c0.3 0.1 0.6 0.4 0.6 0.7 0.1 0.3-0.1 0.6-0.3 0.8q-0.3 0.3-0.7 0.4-0.4 0.1-0.7 0c-0.4 0-0.8-0.2-1-0.2q-0.3-0.2-0.3-0.2 0 0 0 0-0.1 0-0.1 0c0 0.1 0.2 0.1 0.2 0.3 0.1 0.3 0 0.6-0.2 1-0.1 0.4-0.5 0.8-1 1.2-0.3 0.2-0.5 0.4-0.9 0.5-0.3 0-0.6-0.1-0.8-0.3-0.3-0.3-0.4-0.7-0.3-1.1q0-0.2 0.1-0.3c0-0.1 0-0.2 0.1-0.4 0.2-0.3 0.4-0.8 0.6-1.2q-0.5 0.4-0.9 0.7l-0.3 0.2-0.1 0.1q-0.2 0.1-0.3 0.2c-0.4 0.2-0.8 0.3-1.2 0.3-0.4 0-0.7-0.2-1-0.5-0.2-0.2-0.3-0.6-0.1-0.9 0.2-0.4 0.5-0.6 0.9-0.8 0.4-0.1 0.8-0.2 1.3-0.3 0.2 0 0.5-0.1 0.7-0.2l0.5-0.3-0.5-0.1c-0.4-0.1-0.8-0.1-1.1-0.2q-0.2-0.1-0.3-0.3-0.1-0.2-0.1-0.5c0-0.3 0.1-0.6 0.3-0.9 0.2-0.2 0.6-0.4 0.9-0.5 0.4 0 0.9 0.1 1.2 0.3q0.3 0.1 0.5 0.3l0.1 0.2q0.1 0.1 0.2 0.2 0.2 0.3 0.4 0.5c0-0.2 0-0.5 0-0.7q0-0.1 0-0.1l0.1-0.1q0-0.1 0-0.2 0.2-0.2 0.4-0.4c0.2-0.3 0.6-0.4 1-0.4 0.6 0 1.2 0.5 1.4 1.1 0 0.3 0 0.6-0.1 0.8q0 0.2-0.1 0.3-0.1 0.1-0.1 0.2c-0.1 0.1-0.3 0.3-0.5 0.4q0.4 0.1 0.7 0.1zm4.3-4.4c0.5-0.1 1-0.1 1.6-0.1q0.4 0 0.8 0h0.2 0.1q0 0 0 0 0 0.2-0.1 0.3 0 0.2 0 0.3c0 0.2-0.2 0.4-0.4 0.5-0.5 0.3-1 0.5-1.5 0.5-0.5 0.1-1.1 0.1-1.5 0.1-0.6-0.1-1-0.3-1.3-0.4q0.1-0.1 0.3-0.2 0 0 0.2 0c0.1 0.1 0.2 0.2 0.3 0.2q0.2 0 0.4 0c0.1 0 0.2 0 0.4 0q0.1 0 0.3 0 0.2 0 0.4-0.1c0.2 0 0.3 0 0.3-0.1 0-0.1-0.2-0.1-0.4-0.1-0.1 0-0.2 0-0.3 0q-0.2 0-0.3 0-0.2-0.1-0.4-0.1c-0.1 0-0.2 0-0.3 0q-0.2 0-0.3 0-0.1 0-0.2 0 0.2-0.2 0.4-0.4 0 0 0 0c0.3-0.1 0.7-0.3 1.3-0.4zm-0.1-2.6c-0.3-0.2-0.4-0.5-0.4-0.8q0-0.2 0-0.3 0-0.1 0-0.1c0 0 0.1 0.1 0.2 0.2 0.4 0.2 0.7 0.2 1.1 0.3q0.6 0.1 1.1 0.1 0.6 0 1 0.1c0.5 0 0.9 0.2 1 0.1q-0.6 0.2-1.3 0.3-0.4 0.1-0.8 0.1 0 0-0.1 0-0.1-0.1-0.2-0.2-0.1 0-0.3 0-0.1-0.1-0.2-0.1c-0.1 0-0.1-0.1-0.2-0.1q-0.2 0-0.3 0-0.2 0-0.3 0.1 0 0 0.3 0.1c0 0.1 0.1 0.2 0.2 0.2q0.1 0 0.2 0.1c0.1 0 0.2 0 0.3 0q0.1 0 0.2 0-0.3 0.1-0.6 0.2 0 0 0 0c0-0.1-0.5 0-0.9-0.3zm10-0.7c0 0.2-0.2 0.4-0.5 0.7q-0.4 0.3-1 0.6-0.5 0.3-1.1 0.4-0.5 0.1-1 0.2 0 0 0-0.1 0.2-0.1 0.3-0.2c0.1 0 0.2-0.2 0.3-0.3q0.2-0.1 0.3-0.2 0.2-0.2 0.3-0.3c0.2-0.2 0.3-0.3 0.2-0.4 0 0-0.2 0.1-0.4 0.2-0.1 0.1-0.2 0.2-0.3 0.2q-0.1 0.2-0.3 0.3-0.1 0.1-0.3 0.2c-0.1 0.1-0.2 0.1-0.3 0.2q-0.1 0.1-0.3 0.2c0.1-0.5 0.1-0.8 0.3-1.1 0.1-0.2 0.3-0.3 0.5-0.4q1.8-0.2 3.2-0.3 0.1 0.1 0.1 0.1z"></path>
      <path id="Layer" fill-rule="evenodd" class="s1" d="m82.3 8z"></path>
    </g>
  </g>
</svg>
